<svg width="632" height="260" viewBox="0 0 632 260" fill="none" xmlns="http://www.w3.org/2000/svg">
<path d="M172.589 198V54H189.389V115.8C192.722 109.667 197.456 104.933 203.589 101.6C209.722 98.1333 216.389 96.4 223.589 96.4C235.056 96.4 244.256 100 251.189 107.2C258.122 114.267 261.589 125.2 261.589 140V198H244.989V141.8C244.989 121.133 236.656 110.8 219.989 110.8C211.322 110.8 204.056 113.933 198.189 120.2C192.322 126.333 189.389 135.133 189.389 146.6V198H172.589ZM320.042 200.4C311.776 200.4 304.909 199 299.442 196.2C293.976 193.4 289.909 189.667 287.242 185C284.576 180.333 283.242 175.267 283.242 169.8C283.242 159.667 287.109 151.867 294.842 146.4C302.576 140.933 313.109 138.2 326.442 138.2H353.242V137C353.242 128.333 350.976 121.8 346.442 117.4C341.909 112.867 335.842 110.6 328.242 110.6C321.709 110.6 316.042 112.267 311.242 115.6C306.576 118.8 303.642 123.533 302.442 129.8H285.242C285.909 122.6 288.309 116.533 292.442 111.6C296.709 106.667 301.976 102.933 308.242 100.4C314.509 97.7333 321.176 96.4 328.242 96.4C342.109 96.4 352.509 100.133 359.442 107.6C366.509 114.933 370.042 124.733 370.042 137V198H355.042L354.042 180.2C351.242 185.8 347.109 190.6 341.642 194.6C336.309 198.467 329.109 200.4 320.042 200.4ZM322.642 186.2C329.042 186.2 334.509 184.533 339.042 181.2C343.709 177.867 347.242 173.533 349.642 168.2C352.042 162.867 353.242 157.267 353.242 151.4V151.2H327.842C317.976 151.2 310.976 152.933 306.842 156.4C302.842 159.733 300.842 163.933 300.842 169C300.842 174.2 302.709 178.4 306.442 181.6C310.309 184.667 315.709 186.2 322.642 186.2ZM395.245 198V98.8H410.445L411.845 117.8C414.912 111.267 419.579 106.067 425.845 102.2C432.112 98.3333 439.845 96.4 449.045 96.4V114H444.445C438.579 114 433.179 115.067 428.245 117.2C423.312 119.2 419.379 122.667 416.445 127.6C413.512 132.533 412.045 139.333 412.045 148V198H395.245ZM507.102 198C498.035 198 490.902 195.8 485.702 191.4C480.502 187 477.902 179.067 477.902 167.6V113H460.702V98.8H477.902L480.102 75H494.702V98.8H523.902V113H494.702V167.6C494.702 173.867 495.968 178.133 498.502 180.4C501.035 182.533 505.502 183.6 511.902 183.6H522.302V198H507.102ZM583.245 200.4C571.379 200.4 561.512 197.4 553.645 191.4C545.779 185.4 541.179 177.267 539.845 167H557.045C558.112 172.2 560.845 176.733 565.245 180.6C569.779 184.333 575.845 186.2 583.445 186.2C590.512 186.2 595.712 184.733 599.045 181.8C602.379 178.733 604.045 175.133 604.045 171C604.045 165 601.845 161 597.445 159C593.179 157 587.112 155.2 579.245 153.6C573.912 152.533 568.579 151 563.245 149C557.912 147 553.445 144.2 549.845 140.6C546.245 136.867 544.445 132 544.445 126C544.445 117.333 547.645 110.267 554.045 104.8C560.579 99.2 569.379 96.4 580.445 96.4C590.979 96.4 599.579 99.0667 606.245 104.4C613.045 109.6 616.979 117.067 618.045 126.8H601.445C600.779 121.733 598.579 117.8 594.845 115C591.245 112.067 586.379 110.6 580.245 110.6C574.245 110.6 569.579 111.867 566.245 114.4C563.045 116.933 561.445 120.267 561.445 124.4C561.445 128.4 563.512 131.533 567.645 133.8C571.912 136.067 577.645 138 584.845 139.6C590.979 140.933 596.779 142.6 602.245 144.6C607.845 146.467 612.379 149.333 615.845 153.2C619.445 156.933 621.245 162.4 621.245 169.6C621.379 178.533 617.979 185.933 611.045 191.8C604.245 197.533 594.979 200.4 583.245 200.4Z" fill="#F2994A"/>
<mask id="mask0_301_22" style="mask-type:alpha" maskUnits="userSpaceOnUse" x="9" y="55" width="130" height="146">
<path d="M77 200.4C62.8667 200.4 50.7333 197.4 40.6 191.4C30.4667 185.267 22.6667 176.8 17.2 166C11.7333 155.067 9 142.467 9 128.2C9 113.933 11.7333 101.333 17.2 90.4C22.6667 79.4667 30.4667 70.9333 40.6 64.8C50.7333 58.6667 62.8667 55.6 77 55.6C93.8 55.6 107.533 59.8 118.2 68.2C129 76.4667 135.733 88.1333 138.4 103.2H110.2C108.467 95.6 104.733 89.6667 99 85.4C93.4 81 85.9333 78.8 76.6 78.8C63.6667 78.8 53.5333 83.2 46.2 92C38.8667 100.8 35.2 112.867 35.2 128.2C35.2 143.533 38.8667 155.6 46.2 164.4C53.5333 173.067 63.6667 177.4 76.6 177.4C85.9333 177.4 93.4 175.4 99 171.4C104.733 167.267 108.467 161.6 110.2 154.4H138.4C135.733 168.8 129 180.067 118.2 188.2C107.533 196.333 93.8 200.4 77 200.4Z" fill="black"/>
</mask>
<g mask="url(#mask0_301_22)">
<mask id="mask1_301_22" style="mask-type:alpha" maskUnits="userSpaceOnUse" x="71" y="130" width="81" height="76">
<path d="M76 206C117.974 206 152 171.974 152 130H76L71 167.5L76 206Z" fill="#BB6BD9"/>
</mask>
<g mask="url(#mask1_301_22)">
<circle cx="76" cy="130" r="76" fill="#BB6BD9"/>
</g>
<mask id="mask2_301_22" style="mask-type:alpha" maskUnits="userSpaceOnUse" x="0" y="126" width="76" height="80">
<path d="M0 130C0 171.974 34.0264 206 76 206V130L39 126.5L0 130Z" fill="#BB6BD9"/>
</mask>
<g mask="url(#mask2_301_22)">
<circle cx="76" cy="130" r="76" fill="#56CCF2"/>
</g>
<mask id="mask3_301_22" style="mask-type:alpha" maskUnits="userSpaceOnUse" x="0" y="54" width="80" height="76">
<path d="M76 54C34.0264 54 0 88.0264 0 130H76L79.5 92L76 54Z" fill="#BB6BD9"/>
</mask>
<g mask="url(#mask3_301_22)">
<circle cx="74" cy="126" r="76" fill="#FF6262"/>
</g>
<mask id="mask4_301_22" style="mask-type:alpha" maskUnits="userSpaceOnUse" x="76" y="54" width="76" height="76">
<path d="M152 130C152 88.0264 117.974 54 76 54V130H152Z" fill="#BB6BD9"/>
</mask>
<g mask="url(#mask4_301_22)">
<circle cx="74" cy="126" r="76" fill="#F2994A"/>
</g>
</g>
</svg>
